<svg version="1.2" baseProfile="tiny" xmlns="http://www.w3.org/2000/svg" width="1200" height="184" viewBox="0 0 1200 184">
  <path d="M598.866 113.438c-2.11 3.162-4.719 6.15-7.819 8.962-3.105 2.812-6.651 5.243-10.632 7.292-3.984 2.052-8.29 3.66-12.915 4.831-4.629 1.172-9.52 1.758-14.673 1.758-9.256 0-17.836-1.64-25.744-4.919s-14.76-7.821-20.559-13.619c-5.798-5.797-10.34-12.68-13.618-20.647-3.281-7.964-4.919-16.693-4.919-26.183 0-9.487 1.638-18.213 4.919-26.181 3.278-7.966 7.82-14.849 13.618-20.647 5.799-5.799 12.651-10.338 20.559-13.619 7.908-3.277 16.488-4.919 25.744-4.919 7.731 0 15.464 1.523 23.195 4.567 7.731 3.049 14.349 8.084 19.855 15.113l-11.069 8.258c-1.291-1.991-3.048-3.981-5.272-5.974-2.227-1.991-4.775-3.749-7.644-5.272a47.675 47.675 0 0 0-9.226-3.689c-3.281-.937-6.562-1.406-9.84-1.406-7.968 0-15.112 1.467-21.438 4.394-6.326 2.929-11.687 6.853-16.078 11.773-4.394 4.919-7.762 10.631-10.104 17.133-2.344 6.501-3.514 13.327-3.514 20.47 0 7.146 1.169 13.971 3.514 20.472 2.343 6.502 5.711 12.213 10.104 17.135 4.392 4.919 9.752 8.846 16.078 11.771 6.326 2.932 13.47 4.395 21.438 4.395 3.278 0 6.529-.292 9.753-.878 3.22-.585 6.382-1.582 9.487-2.988 3.104-1.406 6.033-3.31 8.787-5.711 2.75-2.398 5.299-5.417 7.644-9.05l10.369 7.378zM699.024 91.999c0 6.212-1.084 11.949-3.25 17.221-2.169 5.272-5.184 9.84-9.049 13.706-3.868 3.865-8.466 6.884-13.797 9.05-5.33 2.167-11.217 3.251-17.657 3.251-6.328 0-12.156-1.084-17.484-3.251-5.335-2.166-9.929-5.185-13.794-9.05-3.866-3.866-6.885-8.434-9.049-13.706-2.171-5.271-3.253-11.009-3.253-17.221 0-6.206 1.082-11.949 3.253-17.219 2.164-5.273 5.183-9.842 9.049-13.708 3.865-3.865 8.459-6.88 13.794-9.048 5.328-2.167 11.156-3.251 17.484-3.251 6.44 0 12.327 1.084 17.657 3.251 5.331 2.168 9.929 5.183 13.797 9.048 3.865 3.866 6.88 8.435 9.049 13.708 2.166 5.27 3.25 11.013 3.25 17.219zm-12.651 0c0-4.567-.733-8.845-2.196-12.827-1.465-3.981-3.546-7.438-6.239-10.367-2.696-2.928-5.947-5.241-9.752-6.941-3.808-1.697-8.114-2.548-12.914-2.548-4.805 0-9.111.851-12.917 2.548-3.807 1.7-7.027 4.014-9.665 6.941-2.634 2.929-4.688 6.386-6.147 10.367-1.469 3.982-2.199 8.26-2.199 12.827 0 4.569.73 8.846 2.199 12.829 1.46 3.983 3.514 7.44 6.147 10.367 2.638 2.93 5.858 5.244 9.665 6.941 3.806 1.699 8.112 2.547 12.917 2.547 4.8 0 9.106-.848 12.914-2.547 3.805-1.697 7.056-4.012 9.752-6.941 2.693-2.927 4.774-6.384 6.239-10.367 1.463-3.983 2.196-8.26 2.196-12.829zM720.107 69.156c0-3.046-.087-6.091-.261-9.138a485.46 485.46 0 0 0-.617-9.138h12.478v12.478h.352c2.811-4.804 6.704-8.436 11.685-10.896 4.979-2.461 9.929-3.689 14.849-3.689 2.225 0 4.596.234 7.116.702a25.727 25.727 0 0 1 7.293 2.549c2.343 1.229 4.539 2.959 6.591 5.183 2.047 2.227 3.776 5.096 5.183 8.609 2.343-5.271 6.062-9.427 11.158-12.476 5.096-3.044 10.396-4.567 15.904-4.567 10.541 0 18.332 2.783 23.368 8.347 5.037 5.564 7.558 13.503 7.558 23.81v52.188h-11.599v-47.97c0-8.318-1.465-14.702-4.392-19.155-2.93-4.45-8.377-6.677-16.344-6.677-4.333 0-7.966.851-10.894 2.548-2.931 1.7-5.302 3.953-7.116 6.765-1.818 2.812-3.136 6.004-3.955 9.577-.819 3.576-1.229 7.292-1.229 11.158v43.754h-11.598v-47.97c0-8.318-1.467-14.702-4.392-19.155-2.932-4.45-8.379-6.677-16.344-6.677-.703 0-2.313.236-4.832.703-2.521.47-5.126 1.757-7.818 3.866-2.697 2.107-5.127 5.271-7.293 9.489-2.169 4.216-3.251 10.076-3.251 17.571v42.172h-11.6V69.156zM869.821 50.881h11.598v13.707h.352c1.874-2.812 4.099-5.213 6.678-7.205 2.575-1.99 5.272-3.63 8.084-4.92a38.76 38.76 0 0 1 8.696-2.812c2.988-.585 5.828-.878 8.524-.878 6.439 0 12.326 1.084 17.66 3.251 5.329 2.168 9.927 5.183 13.793 9.048 3.865 3.866 6.882 8.435 9.05 13.708 2.165 5.27 3.251 11.013 3.251 17.219 0 6.212-1.086 11.949-3.251 17.221-2.168 5.272-5.185 9.84-9.05 13.706-3.866 3.865-8.464 6.884-13.793 9.05-5.334 2.167-11.221 3.251-17.66 3.251-2.696 0-5.536-.293-8.524-.88a38.636 38.636 0 0 1-8.696-2.81 41.29 41.29 0 0 1-8.084-4.922c-2.579-1.988-4.804-4.392-6.678-7.204h-.352v64.315h-11.598V50.881zm75.034 41.118c0-4.567-.734-8.845-2.196-12.827-1.467-3.981-3.545-7.438-6.239-10.367-2.696-2.928-5.947-5.241-9.752-6.941-3.81-1.697-8.114-2.548-12.915-2.548-4.806 0-9.198.851-13.179 2.548-3.985 1.7-7.442 4.014-10.367 6.941-2.932 2.929-5.216 6.386-6.854 10.367-1.643 3.982-2.462 8.26-2.462 12.827 0 4.569.819 8.846 2.462 12.829 1.639 3.983 3.923 7.44 6.854 10.367 2.925 2.93 6.382 5.244 10.367 6.941 3.98 1.699 8.373 2.547 13.179 2.547 4.801 0 9.105-.848 12.915-2.547 3.805-1.697 7.056-4.012 9.752-6.941 2.694-2.927 4.772-6.384 6.239-10.367 1.462-3.983 2.196-8.26 2.196-12.829zM1029.901 82.686v-2.107c0-14.173-7.028-21.263-21.085-21.263-9.607 0-17.986 3.224-25.129 9.665l-7.027-8.259c7.729-7.965 19.327-11.948 34.792-11.948 3.981 0 7.818.587 11.508 1.756 3.69 1.173 6.881 2.959 9.579 5.36 2.692 2.401 4.858 5.42 6.502 9.049 1.636 3.633 2.46 7.968 2.46 13.003v36.727c0 3.162.146 6.474.438 9.929.291 3.455.615 6.297.965 8.521h-11.245a66.162 66.162 0 0 1-.791-6.502 91.385 91.385 0 0 1-.263-6.852h-.353c-3.398 5.508-7.41 9.461-12.036 11.86-4.629 2.399-10.28 3.603-16.956 3.603-3.633 0-7.147-.5-10.544-1.492-3.398-.996-6.414-2.52-9.05-4.57-2.636-2.047-4.744-4.567-6.326-7.556s-2.373-6.472-2.373-10.454c0-6.678 1.728-11.919 5.186-15.729 3.453-3.805 7.788-6.647 13.003-8.522 5.211-1.871 10.776-3.045 16.693-3.514 5.915-.468 11.334-.704 16.254-.704h5.798zm-5.973 9.489c-2.93 0-6.591.147-10.982.439-4.392.293-8.61.997-12.651 2.109-4.042 1.115-7.499 2.843-10.368 5.183-2.872 2.345-4.307 5.565-4.307 9.666 0 2.696.557 5.007 1.671 6.94a13.85 13.85 0 0 0 4.481 4.744c1.873 1.229 3.952 2.109 6.238 2.636 2.284.527 4.594.791 6.94.791 4.216 0 7.877-.702 10.982-2.108 3.104-1.405 5.711-3.31 7.818-5.711 2.108-2.4 3.66-5.211 4.657-8.436.995-3.22 1.493-6.646 1.493-10.278v-5.976h-5.972zM1111.963 70.386c-1.758-3.396-4.103-6.089-7.028-8.083-2.929-1.99-6.503-2.987-10.719-2.987-1.995 0-4.016.236-6.062.703-2.052.47-3.896 1.204-5.535 2.196-1.643.996-2.959 2.258-3.955 3.777-.995 1.525-1.492 3.4-1.492 5.624 0 3.865 1.345 6.678 4.041 8.434 2.693 1.758 6.734 3.281 12.124 4.569l11.773 2.812c5.738 1.29 10.515 3.896 14.322 7.818 3.805 3.927 5.71 8.815 5.71 14.672 0 4.455-.908 8.29-2.723 11.511-1.818 3.223-4.218 5.858-7.205 7.907-2.986 2.052-6.413 3.544-10.279 4.48a49.768 49.768 0 0 1-11.772 1.406c-6.328 0-12.215-1.203-17.66-3.603-5.448-2.399-10.104-6.528-13.971-12.389l10.016-6.852c2.343 3.751 5.298 6.736 8.874 8.962 3.573 2.225 7.819 3.338 12.741 3.338 2.342 0 4.683-.264 7.027-.791 2.343-.526 4.42-1.346 6.238-2.46 1.814-1.113 3.279-2.547 4.394-4.305 1.113-1.758 1.67-3.806 1.67-6.15 0-4.1-1.523-7.058-4.57-8.874-3.047-1.814-6.738-3.251-11.069-4.305l-11.245-2.636c-1.408-.353-3.312-.937-5.713-1.758-2.403-.817-4.744-2.048-7.027-3.69-2.286-1.639-4.248-3.778-5.887-6.414-1.643-2.634-2.46-5.887-2.46-9.751 0-4.219.848-7.908 2.547-11.071 1.697-3.163 3.98-5.739 6.854-7.731 2.868-1.99 6.119-3.483 9.752-4.48a42.437 42.437 0 0 1 11.246-1.493c5.738 0 11.071 1.114 15.991 3.338 4.919 2.227 8.725 6.034 11.421 11.422l-10.369 6.854zM1186.82 70.386c-1.758-3.396-4.103-6.089-7.029-8.083-2.929-1.99-6.502-2.987-10.718-2.987a27.23 27.23 0 0 0-6.064.703c-2.049.47-3.896 1.204-5.534 2.196-1.641.996-2.96 2.258-3.953 3.777-.997 1.525-1.493 3.4-1.493 5.624 0 3.865 1.346 6.678 4.04 8.434 2.694 1.758 6.736 3.281 12.125 4.569l11.773 2.812c5.739 1.29 10.514 3.896 14.322 7.818 3.806 3.927 5.711 8.815 5.711 14.672 0 4.455-.91 8.29-2.723 11.511-1.818 3.223-4.22 5.858-7.206 7.907-2.987 2.052-6.412 3.544-10.28 4.48a49.764 49.764 0 0 1-11.773 1.406c-6.325 0-12.212-1.203-17.658-3.603-5.447-2.399-10.104-6.528-13.97-12.389l10.016-6.852c2.34 3.751 5.298 6.736 8.874 8.962 3.57 2.225 7.818 3.338 12.738 3.338 2.343 0 4.686-.264 7.03-.791 2.342-.526 4.42-1.346 6.238-2.46a13.45 13.45 0 0 0 4.392-4.305c1.112-1.758 1.671-3.806 1.671-6.15 0-4.1-1.525-7.058-4.569-8.874-3.049-1.814-6.738-3.251-11.071-4.305l-11.246-2.636c-1.406-.353-3.312-.937-5.711-1.758-2.402-.817-4.743-2.048-7.029-3.69-2.284-1.639-4.246-3.778-5.887-6.414-1.641-2.634-2.46-5.887-2.46-9.751 0-4.219.85-7.908 2.549-11.071 1.697-3.163 3.981-5.739 6.854-7.731 2.869-1.99 6.12-3.483 9.753-4.48a42.43 42.43 0 0 1 11.245-1.493c5.739 0 11.071 1.114 15.991 3.338 4.92 2.227 8.725 6.034 11.422 11.422l-10.37 6.854z"/>
  <g>
    <path d="M108.083 90.419c0-6.795 1.23-12.942 3.691-18.451 2.459-5.506 5.826-10.22 10.104-14.146 4.274-3.924 9.313-6.941 15.112-9.049 5.799-2.11 11.977-3.164 18.538-3.164 6.56 0 12.74 1.054 18.539 3.164 5.8 2.107 10.834 5.125 15.112 9.049 4.275 3.926 7.645 8.64 10.104 14.146 2.46 5.509 3.69 11.656 3.69 18.451s-1.23 12.944-3.69 18.449c-2.46 5.509-5.829 10.222-10.104 14.146-4.278 3.926-9.312 6.94-15.112 9.05-5.799 2.108-11.979 3.162-18.539 3.162-6.561 0-12.739-1.054-18.538-3.162-5.798-2.109-10.837-5.124-15.112-9.05-4.278-3.925-7.644-8.638-10.104-14.146-2.461-5.505-3.691-11.654-3.691-18.449zm26.359 0c0 6.443 1.845 11.658 5.535 15.638 3.69 3.984 8.875 5.976 15.551 5.976 6.678 0 11.861-1.991 15.552-5.976 3.69-3.979 5.536-9.194 5.536-15.638 0-6.442-1.846-11.656-5.536-15.639-3.691-3.981-8.875-5.976-15.552-5.976s-11.861 1.994-15.551 5.976c-3.69 3.983-5.535 9.197-5.535 15.639zM276.247 75.306c-1.29-1.873-3.105-3.427-5.447-4.656-2.345-1.23-4.863-1.845-7.557-1.845-6.678 0-11.86 1.994-15.551 5.976-3.691 3.982-5.536 9.196-5.536 15.639s1.845 11.658 5.536 15.638c3.691 3.984 8.874 5.976 15.551 5.976 2.927 0 5.448-.644 7.557-1.935 2.108-1.286 3.923-2.812 5.447-4.567l17.396 18.275c-4.102 4.218-8.933 7.175-14.496 8.872-5.565 1.699-10.867 2.549-15.903 2.549-6.562 0-12.739-1.054-18.538-3.162-5.8-2.109-10.837-5.124-15.112-9.05-4.277-3.925-7.644-8.638-10.104-14.146-2.459-5.505-3.689-11.654-3.689-18.449s1.23-12.942 3.689-18.451c2.461-5.506 5.827-10.22 10.104-14.146 4.275-3.924 9.312-6.941 15.112-9.049 5.799-2.11 11.976-3.164 18.538-3.164 5.036 0 10.338.852 15.903 2.548 5.563 1.7 10.395 4.657 14.496 8.874l-17.396 18.273zM301.373 20.833c0-4.218 1.494-7.819 4.482-10.807 2.987-2.988 6.589-4.48 10.806-4.48 4.218 0 7.821 1.492 10.808 4.48 2.987 2.987 4.48 6.589 4.48 10.807s-1.494 7.819-4.48 10.807-6.59 4.48-10.808 4.48c-4.217 0-7.819-1.493-10.806-4.48-2.988-2.988-4.482-6.589-4.482-10.807zm2.11 26.886h26.358v85.398h-26.358V47.719zM402.413 122.399h-.351c-2.93 4.567-6.825 7.849-11.685 9.842-4.863 1.988-9.989 2.985-15.375 2.985-3.984 0-7.82-.557-11.51-1.669-3.691-1.112-6.941-2.781-9.752-5.009-2.812-2.223-5.039-4.979-6.678-8.26-1.642-3.276-2.46-7.086-2.46-11.421 0-4.92.906-9.077 2.724-12.476 1.814-3.396 4.274-6.208 7.38-8.436 3.102-2.223 6.646-3.952 10.631-5.183a77.963 77.963 0 0 1 12.387-2.725c4.275-.585 8.552-.935 12.828-1.054 4.275-.115 8.229-.177 11.861-.177 0-4.683-1.669-8.403-5.008-11.157-3.339-2.75-7.292-4.129-11.861-4.129-4.336 0-8.29.909-11.861 2.723-3.574 1.819-6.765 4.307-9.576 7.468l-14.059-14.408c4.92-4.568 10.659-7.995 17.221-10.279 6.56-2.285 13.355-3.427 20.384-3.427 7.732 0 14.086.967 19.066 2.898 4.978 1.935 8.962 4.775 11.949 8.523 2.987 3.75 5.065 8.346 6.237 13.794 1.17 5.447 1.758 11.745 1.758 18.89v43.402h-24.25v-10.715zm-6.502-26.711c-1.994 0-4.482.089-7.468.266a37.94 37.94 0 0 0-8.61 1.492c-2.754.821-5.096 2.052-7.029 3.69-1.934 1.643-2.9 3.926-2.9 6.854 0 3.164 1.345 5.509 4.042 7.029 2.693 1.523 5.505 2.284 8.435 2.284 2.575 0 5.065-.352 7.467-1.056 2.4-.702 4.539-1.695 6.414-2.986a14.445 14.445 0 0 0 4.481-4.92c1.112-1.99 1.669-4.333 1.669-7.029v-5.624h-6.501zM443.528.273h26.359v132.844h-26.359V.273z"/>
    <g>
      <path d="M20.753 72.846c.236.14.478.273.715.411l9.38-17.322.362-.668.645-.401 5.449-3.397c-2.13-1.931-3.196-4.527-3.196-7.791 0-2.342.585-4.332 1.757-5.975 1.17-1.639 2.693-2.958 4.57-3.953a23.549 23.549 0 0 1 5.974-2.196c2.109-.468 4.157-.704 6.151-.704 3.396 0 6.998.675 10.806 2.021.791.281 1.541.601 2.263.943l25.128-15.663c-5.156-4.474-10.917-7.682-17.286-9.618-6.562-1.989-13.355-2.985-20.384-2.985-6.092 0-12.009.851-17.748 2.548-5.741 1.699-10.807 4.247-15.199 7.644-4.394 3.398-7.909 7.616-10.543 12.651-2.636 5.039-3.954 10.896-3.954 17.573 0 6.912 1.433 12.475 4.305 16.692 2.867 4.216 6.47 7.615 10.805 10.19zM76.544 67.574a55.945 55.945 0 0 0-4.697-2.527l-9.844 18.179-.362.668-.644.4-4.427 2.761a31.126 31.126 0 0 1 3.105 2.046c2.869 2.168 4.305 5.126 4.305 8.874 0 2.226-.558 4.159-1.669 5.798-1.115 1.643-2.578 2.987-4.393 4.042-1.818 1.054-3.866 1.845-6.15 2.373-2.285.525-4.542.79-6.766.79-4.568 0-8.992-1.025-13.267-3.074a29.536 29.536 0 0 1-4.424-2.611l-25.269 15.75c5.85 5.298 12.142 9.149 18.885 11.549 6.911 2.46 14.409 3.689 22.493 3.689 6.441 0 12.563-.821 18.362-2.46 5.8-1.639 10.896-4.156 15.289-7.555 4.394-3.396 7.877-7.671 10.455-12.828 2.575-5.154 3.866-11.187 3.866-18.099 0-7.263-1.406-13.062-4.217-17.397-2.811-4.334-6.357-7.79-10.631-10.368z"/>
    </g>
    <path d="M33.374 57.302L0 118.93l59.478-37.071 33.373-61.631-59.477 37.074zm19.274 11.941a6.223 6.223 0 1 1-12.446 0c0-3.437 2.785-6.223 6.222-6.223s6.224 2.787 6.224 6.223z"/>
  </g>
</svg>