<svg version="1.2" baseProfile="tiny" xmlns="http://www.w3.org/2000/svg" width="1200" height="184" viewBox="0 0 1200 184"><g fill="#222"><path d="M598.866 113.438c-2.11 3.163-4.719 6.15-7.82 8.962-3.105 2.812-6.651 5.243-10.631 7.293-3.984 2.051-8.29 3.66-12.915 4.831-4.63 1.171-9.52 1.758-14.673 1.758-9.256 0-17.836-1.642-25.744-4.92s-14.76-7.82-20.559-13.618c-5.798-5.798-10.34-12.679-13.618-20.648-3.281-7.965-4.92-16.692-4.92-26.182 0-9.488 1.639-18.215 4.92-26.183 3.278-7.966 7.82-14.849 13.618-20.647 5.799-5.798 12.651-10.337 20.559-13.618 7.908-3.278 16.488-4.921 25.744-4.921 7.731 0 15.464 1.524 23.195 4.569 7.731 3.047 14.349 8.083 19.856 15.112l-11.07 8.258c-1.291-1.99-3.047-3.98-5.271-5.975-2.227-1.989-4.775-3.747-7.644-5.271a47.741 47.741 0 0 0-9.226-3.69c-3.281-.936-6.562-1.406-9.84-1.406-7.968 0-15.112 1.467-21.438 4.394-6.326 2.93-11.687 6.853-16.078 11.773-4.394 4.92-7.762 10.632-10.104 17.134-2.345 6.5-3.514 13.326-3.514 20.471 0 7.146 1.169 13.97 3.514 20.472 2.343 6.502 5.711 12.213 10.104 17.134 4.392 4.919 9.752 8.846 16.078 11.771 6.326 2.931 13.47 4.395 21.438 4.395 3.278 0 6.529-.293 9.753-.879 3.22-.585 6.382-1.581 9.487-2.988 3.104-1.405 6.033-3.309 8.787-5.71 2.75-2.399 5.299-5.417 7.644-9.05l10.368 7.379zM699.024 92c0 6.21-1.084 11.948-3.251 17.22-2.168 5.272-5.183 9.841-9.048 13.707-3.868 3.865-8.466 6.884-13.797 9.05-5.33 2.166-11.217 3.251-17.657 3.251-6.328 0-12.156-1.085-17.484-3.251-5.334-2.166-9.929-5.185-13.794-9.05-3.866-3.866-6.885-8.435-9.049-13.707-2.171-5.271-3.253-11.01-3.253-17.22 0-6.209 1.082-11.949 3.253-17.222 2.164-5.271 5.183-9.84 9.049-13.706 3.865-3.865 8.46-6.881 13.794-9.05 5.328-2.166 11.156-3.25 17.484-3.25 6.44 0 12.327 1.084 17.657 3.25 5.331 2.169 9.929 5.185 13.797 9.05 3.865 3.866 6.88 8.435 9.048 13.706 2.167 5.273 3.251 11.013 3.251 17.222zm-12.651 0c0-4.569-.734-8.845-2.196-12.828-1.465-3.981-3.546-7.438-6.239-10.368-2.696-2.927-5.947-5.24-9.752-6.94-3.808-1.697-8.114-2.548-12.914-2.548-4.805 0-9.111.851-12.917 2.548-3.807 1.7-7.027 4.014-9.665 6.94-2.634 2.931-4.688 6.387-6.147 10.368-1.469 3.983-2.199 8.259-2.199 12.828 0 4.567.73 8.845 2.199 12.827 1.46 3.984 3.514 7.441 6.147 10.368 2.638 2.93 5.858 5.244 9.665 6.941 3.806 1.699 8.112 2.548 12.917 2.548 4.8 0 9.106-.849 12.914-2.548 3.805-1.697 7.056-4.012 9.752-6.941 2.693-2.927 4.774-6.384 6.239-10.368 1.462-3.982 2.196-8.26 2.196-12.827zM720.107 69.155c0-3.045-.087-6.09-.261-9.138a484.787 484.787 0 0 0-.617-9.137h12.478v12.477h.352c2.811-4.803 6.704-8.436 11.685-10.896 4.979-2.46 9.929-3.689 14.849-3.689 2.225 0 4.596.235 7.116.702a25.817 25.817 0 0 1 7.293 2.548c2.343 1.23 4.539 2.96 6.591 5.185 2.047 2.227 3.776 5.096 5.183 8.609 2.343-5.271 6.062-9.428 11.158-12.476 5.096-3.046 10.396-4.568 15.904-4.568 10.541 0 18.331 2.784 23.368 8.346 5.037 5.565 7.558 13.505 7.558 23.812v52.188h-11.599V85.146c0-8.317-1.465-14.701-4.393-19.154-2.929-4.45-8.377-6.677-16.343-6.677-4.333 0-7.966.851-10.894 2.548-2.931 1.7-5.302 3.953-7.116 6.765-1.818 2.812-3.136 6.005-3.955 9.577-.819 3.575-1.229 7.293-1.229 11.158v43.755h-11.598V85.146c0-8.317-1.467-14.701-4.392-19.154-2.932-4.45-8.379-6.677-16.344-6.677-.703 0-2.313.235-4.832.702-2.521.47-5.126 1.758-7.819 3.866-2.696 2.108-5.126 5.271-7.292 9.49-2.169 4.217-3.251 10.075-3.251 17.57v42.174h-11.6V69.155zM869.821 50.881h11.598v13.706h.353c1.873-2.812 4.098-5.212 6.677-7.204a41.528 41.528 0 0 1 8.084-4.921 38.706 38.706 0 0 1 8.696-2.811c2.988-.585 5.828-.879 8.524-.879 6.439 0 12.326 1.084 17.66 3.25 5.329 2.169 9.927 5.185 13.792 9.05 3.866 3.866 6.883 8.435 9.051 13.706 2.165 5.272 3.251 11.013 3.251 17.222 0 6.21-1.086 11.948-3.251 17.22-2.168 5.272-5.185 9.841-9.051 13.707-3.865 3.865-8.463 6.884-13.792 9.05-5.334 2.166-11.221 3.251-17.66 3.251-2.696 0-5.536-.293-8.524-.88a38.64 38.64 0 0 1-8.696-2.811c-2.812-1.288-5.509-2.928-8.084-4.921-2.579-1.989-4.804-4.392-6.677-7.204h-.353v64.315h-11.598V50.881zM944.855 92c0-4.569-.734-8.845-2.196-12.828-1.467-3.981-3.545-7.438-6.239-10.368-2.696-2.927-5.947-5.24-9.752-6.94-3.81-1.697-8.114-2.548-12.915-2.548-4.806 0-9.198.851-13.179 2.548-3.985 1.7-7.442 4.014-10.367 6.94-2.932 2.931-5.216 6.387-6.854 10.368-1.643 3.983-2.462 8.259-2.462 12.828 0 4.567.819 8.845 2.462 12.827 1.639 3.984 3.923 7.441 6.854 10.368 2.925 2.93 6.382 5.244 10.367 6.941 3.98 1.699 8.373 2.548 13.179 2.548 4.801 0 9.105-.849 12.915-2.548 3.805-1.697 7.056-4.012 9.752-6.941 2.694-2.927 4.772-6.384 6.239-10.368 1.462-3.982 2.196-8.26 2.196-12.827zM1029.901 82.687v-2.108c0-14.175-7.028-21.263-21.085-21.263-9.607 0-17.986 3.224-25.129 9.663l-7.027-8.257c7.729-7.966 19.326-11.949 34.792-11.949 3.981 0 7.818.587 11.508 1.757 3.69 1.172 6.88 2.959 9.579 5.359 2.692 2.402 4.859 5.421 6.502 9.05 1.636 3.632 2.459 7.968 2.459 13.003v36.727c0 3.163.146 6.475.439 9.929.291 3.456.615 6.298.965 8.521h-11.245a65.934 65.934 0 0 1-.791-6.502 91.431 91.431 0 0 1-.263-6.853h-.353c-3.398 5.508-7.41 9.462-12.036 11.861-4.629 2.399-10.28 3.603-16.956 3.603-3.634 0-7.147-.499-10.544-1.494-3.398-.994-6.414-2.519-9.05-4.568-2.636-2.048-4.744-4.568-6.326-7.556-1.582-2.988-2.373-6.473-2.373-10.455 0-6.678 1.728-11.919 5.185-15.729 3.453-3.805 7.789-6.646 13.004-8.522 5.211-1.872 10.776-3.045 16.693-3.514 5.915-.468 11.334-.703 16.254-.703h5.798zm-5.973 9.488c-2.93 0-6.591.148-10.982.438-4.393.295-8.609.998-12.651 2.11-4.042 1.114-7.499 2.843-10.368 5.183-2.872 2.346-4.307 5.566-4.307 9.666 0 2.696.557 5.008 1.671 6.94a13.853 13.853 0 0 0 4.481 4.745c1.873 1.229 3.952 2.108 6.238 2.636 2.284.526 4.594.791 6.94.791 4.216 0 7.878-.703 10.982-2.109 3.104-1.404 5.711-3.309 7.818-5.711 2.108-2.399 3.66-5.211 4.657-8.435.995-3.221 1.493-6.646 1.493-10.28v-5.975h-5.972zM1111.963 70.386c-1.758-3.396-4.103-6.09-7.027-8.083-2.93-1.991-6.504-2.987-10.72-2.987-1.995 0-4.016.235-6.062.702-2.052.47-3.896 1.203-5.535 2.196-1.643.997-2.96 2.258-3.955 3.778-.995 1.524-1.492 3.399-1.492 5.624 0 3.865 1.345 6.678 4.041 8.435 2.692 1.758 6.734 3.279 12.124 4.568l11.773 2.812c5.738 1.291 10.515 3.896 14.322 7.82 3.805 3.926 5.71 8.815 5.71 14.672 0 4.454-.908 8.29-2.723 11.511-1.818 3.223-4.218 5.858-7.205 7.907-2.986 2.051-6.413 3.544-10.278 4.481a49.833 49.833 0 0 1-11.773 1.405c-6.328 0-12.215-1.203-17.66-3.603-5.448-2.399-10.104-6.529-13.971-12.389l10.016-6.853c2.343 3.751 5.298 6.737 8.875 8.962 3.572 2.226 7.818 3.339 12.74 3.339 2.342 0 4.683-.265 7.027-.791 2.343-.527 4.42-1.346 6.238-2.46a13.462 13.462 0 0 0 4.395-4.306c1.112-1.757 1.668-3.806 1.668-6.15 0-4.1-1.522-7.057-4.569-8.874-3.047-1.815-6.738-3.251-11.069-4.305l-11.245-2.636c-1.408-.352-3.312-.936-5.713-1.758-2.403-.819-4.744-2.048-7.028-3.69-2.285-1.639-4.248-3.777-5.886-6.414-1.644-2.636-2.46-5.887-2.46-9.752 0-4.218.848-7.907 2.547-11.071 1.697-3.162 3.98-5.738 6.854-7.73 2.868-1.991 6.119-3.484 9.752-4.481a42.39 42.39 0 0 1 11.246-1.493c5.738 0 11.071 1.114 15.99 3.339 4.92 2.227 8.726 6.034 11.422 11.422l-10.369 6.853zM1186.82 70.386c-1.758-3.396-4.103-6.09-7.029-8.083-2.93-1.991-6.502-2.987-10.718-2.987-1.994 0-4.015.235-6.064.702-2.049.47-3.896 1.203-5.534 2.196-1.641.997-2.96 2.258-3.953 3.778-.997 1.524-1.493 3.399-1.493 5.624 0 3.865 1.346 6.678 4.04 8.435 2.694 1.758 6.736 3.279 12.125 4.568l11.773 2.812c5.739 1.291 10.514 3.896 14.322 7.82 3.806 3.926 5.711 8.815 5.711 14.672 0 4.454-.91 8.29-2.723 11.511-1.818 3.223-4.22 5.858-7.206 7.907-2.987 2.051-6.412 3.544-10.28 4.481a49.808 49.808 0 0 1-11.773 1.405c-6.325 0-12.212-1.203-17.658-3.603-5.447-2.399-10.104-6.529-13.97-12.389l10.015-6.853c2.341 3.751 5.299 6.737 8.875 8.962 3.57 2.226 7.818 3.339 12.738 3.339 2.343 0 4.686-.265 7.029-.791 2.343-.527 4.421-1.346 6.239-2.46a13.443 13.443 0 0 0 4.392-4.306c1.112-1.757 1.671-3.806 1.671-6.15 0-4.1-1.525-7.057-4.569-8.874-3.049-1.815-6.738-3.251-11.072-4.305l-11.245-2.636c-1.405-.352-3.312-.936-5.711-1.758-2.403-.819-4.743-2.048-7.029-3.69-2.284-1.639-4.246-3.777-5.887-6.414-1.641-2.636-2.46-5.887-2.46-9.752 0-4.218.85-7.907 2.549-11.071 1.697-3.162 3.981-5.738 6.854-7.73 2.869-1.991 6.119-3.484 9.753-4.481a42.389 42.389 0 0 1 11.245-1.493c5.739 0 11.071 1.114 15.991 3.339 4.92 2.227 8.725 6.034 11.422 11.422l-10.37 6.853z"/></g><g fill="#222"><path d="M108.083 90.418c0-6.793 1.23-12.942 3.691-18.451 2.459-5.505 5.826-10.219 10.103-14.146 4.274-3.923 9.314-6.94 15.112-9.049 5.799-2.109 11.977-3.163 18.538-3.163 6.56 0 12.74 1.054 18.539 3.163 5.8 2.108 10.833 5.126 15.112 9.049 4.275 3.927 7.645 8.641 10.104 14.146 2.459 5.509 3.689 11.658 3.689 18.451 0 6.795-1.23 12.945-3.689 18.451-2.46 5.508-5.829 10.222-10.104 14.146-4.279 3.926-9.312 6.94-15.112 9.05-5.799 2.108-11.979 3.163-18.539 3.163-6.562 0-12.739-1.055-18.538-3.163-5.798-2.109-10.838-5.124-15.112-9.05-4.277-3.924-7.644-8.638-10.103-14.146-2.461-5.506-3.691-11.656-3.691-18.451zm26.359 0c0 6.444 1.845 11.658 5.535 15.64 3.69 3.983 8.875 5.975 15.551 5.975 6.678 0 11.861-1.991 15.552-5.975 3.69-3.981 5.536-9.195 5.536-15.64 0-6.442-1.846-11.655-5.536-15.64-3.691-3.98-8.875-5.975-15.552-5.975s-11.861 1.994-15.551 5.975c-3.69 3.985-5.535 9.198-5.535 15.64zM276.247 75.306c-1.29-1.872-3.105-3.427-5.447-4.657-2.345-1.229-4.863-1.845-7.557-1.845-6.678 0-11.86 1.994-15.551 5.975-3.691 3.984-5.536 9.197-5.536 15.64 0 6.444 1.845 11.658 5.536 15.64 3.691 3.983 8.874 5.975 15.551 5.975 2.927 0 5.448-.643 7.557-1.934 2.108-1.287 3.923-2.812 5.447-4.568l17.396 18.275c-4.102 4.218-8.933 7.176-14.496 8.873-5.565 1.698-10.867 2.549-15.903 2.549-6.562 0-12.739-1.055-18.538-3.163-5.8-2.109-10.837-5.124-15.112-9.05-4.277-3.924-7.644-8.638-10.104-14.146-2.46-5.506-3.689-11.656-3.689-18.451 0-6.793 1.229-12.942 3.689-18.451 2.461-5.505 5.827-10.219 10.104-14.146 4.275-3.923 9.312-6.94 15.112-9.049 5.799-2.109 11.976-3.163 18.538-3.163 5.036 0 10.338.851 15.903 2.548 5.563 1.699 10.395 4.656 14.496 8.873l-17.396 18.275zM301.373 20.833c0-4.218 1.494-7.82 4.482-10.808 2.987-2.987 6.589-4.481 10.806-4.481 4.218 0 7.821 1.494 10.808 4.481s4.48 6.59 4.48 10.808c0 4.217-1.494 7.819-4.48 10.806-2.987 2.988-6.59 4.481-10.808 4.481-4.217 0-7.819-1.493-10.806-4.481-2.988-2.987-4.482-6.589-4.482-10.806zm2.11 26.885h26.357v85.4h-26.357v-85.4zM402.413 122.399h-.351c-2.93 4.568-6.825 7.85-11.685 9.842-4.863 1.989-9.989 2.986-15.375 2.986-3.984 0-7.82-.558-11.51-1.67-3.691-1.111-6.941-2.781-9.752-5.008-2.812-2.224-5.039-4.979-6.678-8.26-1.642-3.277-2.46-7.086-2.46-11.421 0-4.921.906-9.077 2.724-12.477 1.814-3.396 4.274-6.208 7.38-8.435 3.101-2.225 6.646-3.954 10.63-5.185a77.643 77.643 0 0 1 12.388-2.723c4.275-.585 8.552-.937 12.828-1.056 4.275-.115 8.229-.175 11.861-.175 0-4.684-1.669-8.404-5.008-11.158-3.339-2.751-7.292-4.129-11.861-4.129-4.336 0-8.29.908-11.861 2.723-3.574 1.819-6.765 4.306-9.577 7.469l-14.058-14.409c4.92-4.568 10.659-7.995 17.221-10.279 6.559-2.285 13.355-3.427 20.384-3.427 7.731 0 14.085.966 19.066 2.898 4.978 1.935 8.962 4.775 11.949 8.522 2.987 3.751 5.065 8.347 6.237 13.795 1.17 5.446 1.758 11.746 1.758 18.89v43.403h-24.25v-10.716zm-6.502-26.71c-1.994 0-4.482.088-7.468.264a37.941 37.941 0 0 0-8.61 1.494c-2.754.82-5.096 2.051-7.029 3.69-1.934 1.642-2.9 3.927-2.9 6.853 0 3.164 1.345 5.509 4.042 7.029 2.693 1.523 5.505 2.284 8.435 2.284 2.575 0 5.065-.353 7.467-1.055 2.4-.702 4.539-1.696 6.414-2.987a14.439 14.439 0 0 0 4.482-4.92c1.112-1.991 1.669-4.334 1.669-7.029v-5.623h-6.502zM443.528.272h26.359v132.846h-26.359V.272z"/><g><path d="M20.753 72.846c.236.14.478.273.715.41l9.38-17.321.362-.668.645-.401 5.449-3.397c-2.13-1.931-3.196-4.527-3.196-7.791 0-2.343.585-4.334 1.757-5.976 1.17-1.639 2.693-2.957 4.57-3.953a23.625 23.625 0 0 1 5.974-2.196c2.109-.467 4.157-.704 6.151-.704 3.396 0 6.998.676 10.806 2.021.791.28 1.541.6 2.263.943L90.756 18.15c-5.155-4.474-10.917-7.683-17.286-9.618-6.562-1.989-13.355-2.987-20.384-2.987-6.092 0-12.009.853-17.748 2.549-5.741 1.7-10.807 4.248-15.199 7.643-4.394 3.4-7.909 7.617-10.543 12.652-2.637 5.037-3.955 10.894-3.955 17.571 0 6.913 1.433 12.477 4.305 16.693 2.869 4.218 6.472 7.617 10.807 10.193zM76.544 67.574a55.371 55.371 0 0 0-4.697-2.527l-9.843 18.178-.362.667-.644.403-4.427 2.759a31.302 31.302 0 0 1 3.105 2.046c2.87 2.17 4.305 5.128 4.305 8.875 0 2.227-.558 4.159-1.669 5.798-1.115 1.643-2.578 2.987-4.393 4.042-1.818 1.055-3.866 1.845-6.15 2.373-2.285.526-4.542.79-6.766.79-4.568 0-8.992-1.024-13.267-3.075a29.447 29.447 0 0 1-4.424-2.61l-25.269 15.75c5.85 5.298 12.142 9.148 18.885 11.549 6.911 2.46 14.409 3.689 22.493 3.689 6.441 0 12.563-.821 18.362-2.459 5.8-1.64 10.896-4.157 15.289-7.557 4.394-3.396 7.877-7.67 10.455-12.828 2.575-5.153 3.866-11.186 3.866-18.099 0-7.263-1.406-13.062-4.216-17.397-2.813-4.333-6.359-7.789-10.633-10.367z"/></g></g><linearGradient id="a" gradientUnits="userSpaceOnUse" x1="11.26" y1="81.915" x2="34.045" y2="104.701"><stop offset="0" stop-color="#4c4c4c"/><stop offset="1" stop-color="#333"/></linearGradient><path fill="url(#a)" d="M53.161 75.916l-2.376-2.235a6.198 6.198 0 0 1-4.36 1.786 6.223 6.223 0 0 1-6.222-6.224c0-1.562.58-2.986 1.53-4.078l-.976-.918-1.397-1.313-5.986-5.632L0 118.931l59.478-37.074-6.317-5.941z"/><linearGradient id="b" gradientUnits="userSpaceOnUse" x1="56.69" y1="32.343" x2="83.654" y2="59.306"><stop offset="0" stop-color="#cb2027"/><stop offset="1" stop-color="#933"/></linearGradient><path fill="url(#b)" d="M33.374 57.302l5.986 5.632 2.372 2.231a6.204 6.204 0 0 1 4.693-2.145 6.223 6.223 0 0 1 6.224 6.223 6.203 6.203 0 0 1-1.874 4.447l-.001.001.012-.011.978.92 1.398 1.315 6.316 5.94 33.374-61.629-59.478 37.076z"/><g><path fill="#333" d="M46.425 78.727a9.432 9.432 0 0 1-6.32-2.428L0 118.931l59.478-37.074-6.316-5.94a9.46 9.46 0 0 1-6.737 2.81z"/><path fill="#4C4C4C" d="M36.941 69.243c0-2.427.919-4.634 2.418-6.31l-5.986-5.632L0 118.931l40.104-42.632a9.45 9.45 0 0 1-3.163-7.056z"/><linearGradient id="c" gradientUnits="userSpaceOnUse" x1="49.109" y1="78.595" x2="36.766" y2="66.251"><stop offset="0" stop-color="#4c4c4c"/><stop offset="1" stop-color="#333"/></linearGradient><path fill="url(#c)" d="M50.785 73.681a6.198 6.198 0 0 1-4.36 1.786 6.223 6.223 0 0 1-6.222-6.224c0-1.562.58-2.986 1.53-4.078l-.976-.918-1.397-1.313a9.45 9.45 0 0 0 .745 13.366 9.435 9.435 0 0 0 6.32 2.428 9.449 9.449 0 0 0 6.736-2.811l-2.376-2.236z"/></g><g><path fill="#CB2027" d="M46.425 59.76a9.456 9.456 0 0 1 6.663 2.737l39.764-42.27-59.478 37.075 5.986 5.632a9.447 9.447 0 0 1 7.065-3.174z"/><path fill="#933" d="M59.478 81.856l33.374-61.629-39.764 42.27a9.453 9.453 0 0 1 2.822 6.746 9.45 9.45 0 0 1-2.748 6.673"/><linearGradient id="d" gradientUnits="userSpaceOnUse" x1="56.175" y1="72.666" x2="42.831" y2="59.323"><stop offset="0" stop-color="#cb2027"/><stop offset="1" stop-color="#933"/></linearGradient><path fill="url(#d)" d="M53.087 62.497a9.454 9.454 0 0 0-6.663-2.737 9.447 9.447 0 0 0-7.065 3.174l2.372 2.231a6.204 6.204 0 0 1 4.693-2.145 6.223 6.223 0 0 1 6.224 6.223 6.203 6.203 0 0 1-1.874 4.447l-.001.001.012-.011.978.92 1.398 1.315a9.45 9.45 0 0 0 2.748-6.673 9.455 9.455 0 0 0-2.822-6.745z"/></g></svg>