<?xml version="1.0" encoding="utf-8"?>
<!-- Generator: Adobe Illustrator 19.2.0, SVG Export Plug-In . SVG Version: 6.00 Build 0)  -->
<svg version="1.1" id="Map" opacity="0.4" xmlns="http://www.w3.org/2000/svg" xmlns:xlink="http://www.w3.org/1999/xlink" x="0px"
	 y="0px" viewBox="0 0 1280 1280" style="enable-background:new 0 0 1280 1280;" xml:space="preserve">
<style type="text/css">
	.st0{fill:#FFFFFF;}
	.st1{fill:#5286BB;}
	.st2{fill:#5FA7DC;}
	.st3{fill:#D61F29;}
	.st4{opacity:0.6;}
	.st5{fill:#989897;}
</style>
<symbol  id="Reddit_Icon_2" viewBox="-42.5 -42.5 85 85">
	<circle class="st0" cx="0" cy="0" r="40"/>
	<path class="st1" d="M14.2-5.9c0-2.4-2-4.4-4.5-4.4c-2.4,0-4.4,2-4.4,4.4c0,2.5,2,4.5,4.4,4.5C12.2-1.5,14.2-3.5,14.2-5.9z
		 M-5.3-5.9c0,2.5-2,4.5-4.4,4.5c-2.5,0-4.5-2-4.5-4.5c0-2.4,2-4.4,4.5-4.4C-7.3-10.4-5.3-8.4-5.3-5.9z M8.4-14.9
		c-1.8-1.8-5.6-2.4-8.4-2.4c-2.7,0-6.6,0.6-8.4,2.4c-0.4,0.4-1.1,0.4-1.5,0s-0.4-1.1,0-1.5c2.8-2.8,8.3-3.1,9.9-3.1s7,0.2,9.9,3.1
		c0.4,0.4,0.4,1.1,0,1.5S8.8-14.5,8.4-14.9z M42.5,0c0-23.5-19-42.5-42.5-42.5S-42.5-23.5-42.5,0s19,42.5,42.5,42.5
		S42.5,23.5,42.5,0z M26.6,0c0,3.3-2.7,5.9-5.9,5.9c-1.7,0-3.2-0.7-4.3-1.8C12.4,6.9,7,8.7,1,8.9l3.1,14l9.9-2.2
		c0-2.4,2-4.4,4.4-4.4c2.5,0,4.5,2,4.5,4.5c0,2.4-2,4.5-4.5,4.5c-1.7,0-3.2-1-4-2.5L3.6,25.1c-0.5,0.1-1.1-0.2-1.2-0.8L-1.1,8.9
		c-5.9-0.2-11.3-2-15.3-4.8c-1.1,1.1-2.6,1.8-4.3,1.8c-3.3,0-5.9-2.6-5.9-5.9c0-2.4,1.4-4.4,3.4-5.3c-0.2-0.9-0.3-1.8-0.3-2.8
		c0-9.4,10.6-17,23.6-17c13.1,0,23.7,7.6,23.7,17c0,0.9-0.1,1.9-0.3,2.8C25.3-4.3,26.6-2.3,26.6,0z"/>
</symbol>
<symbol  id="Twitter_Icon_2" viewBox="-42.5 -42.5 85 85">
	<circle class="st0" cx="0" cy="0" r="40"/>
	<path class="st2" d="M0,42.5c-23.5,0-42.5-19-42.5-42.5s19-42.5,42.5-42.5S42.5-23.5,42.5,0S23.5,42.5,0,42.5z M18.9,9.7V8.4
		C19-4.5,9.1-19.4-8.8-19.4c-5.5,0-10.7,1.6-15,4.4c0.8-0.1,1.5-0.1,2.4-0.1c4.6,0,8.8,1.5,12.1,4.2c-4.3,0.1-7.9,2.9-9.1,6.8
		c0.6-0.1,1.2-0.2,1.8-0.2c0.9,0,1.7,0.1,2.6,0.3c-4.5,0.9-7.8,4.8-7.8,9.6v0.1c2-0.7,2.8-1.2,4.4-1.2c-2.6,1.8-4.3,4.7-4.3,8.1
		c0,1.8,0.5,3.5,1.3,4.9c4.8-5.9,12-9.8,20.1-10.2C-0.5,8-0.5,8.8-0.5,9.5c0,5.4,4.4,9.8,9.8,9.8c2.8,0,5.4-1.2,7.1-3.1
		c2.2,0.4,4.3,1.2,6.2,2.4c-0.7-2.3-2.3-4.2-4.3-5.4c2,0.2,3.9,0.8,5.6,1.5C22.5,12.8,20.8,11.1,18.9,9.7z"/>
</symbol>
<symbol  id="YouTube_Icon_2" viewBox="-42.5 -42.5 85 85">
	<circle class="st0" cx="0" cy="0" r="40"/>
	<path class="st3" d="M10.7,1.6l-15.5,9.7c-0.6,0.4-1.5,0.4-2.1,0.1C-7.5,11-8,10.4-8,9.7V-9.7c0-0.7,0.5-1.4,1.1-1.7
		c0.3-0.2,0.7-0.2,1-0.2c0.4,0,0.8,0.1,1.1,0.3l15.5,9.7c0.6,0.3,0.9,1,0.9,1.6S11.3,1.3,10.7,1.6z"/>
	<path class="st3" d="M0,42.5c-23.5,0-42.5-19-42.5-42.5s19-42.5,42.5-42.5S42.5-23.5,42.5,0S23.5,42.5,0,42.5z M26.1-13.1
		c-0.6-3-3-5.1-5.8-5.5C13.6-19.4,6.8-19.4,0-19.4s-13.6,0-20.3,0.8c-2.8,0.3-5.2,2.5-5.9,5.5c-0.9,4.2-0.9,8.8-0.9,13.1
		s0,8.9,1,13.1c0.7,3,3,5.1,5.8,5.5c6.7,0.8,13.5,0.8,20.3,0.8s13.6,0,20.3-0.8c2.8-0.3,5.2-2.5,5.9-5.5c0.9-4.2,0.9-8.8,0.9-13.1
		S27.1-8.9,26.1-13.1z"/>
</symbol>
<g id="Edges_4_">
	<g class="st4">
		<path class="st5" d="M628.1,959.8l3.4-4.3l229.8,183.7l-3.4,4.3L628.1,959.8z"/>
	</g>
	<g class="st4">
		<path class="st5" d="M460.2,1114.2l0.5-6.1l399.2,30.3l-0.5,6.1L460.2,1114.2z"/>
	</g>
	<g class="st4">
		<path class="st5" d="M458.8,1109.4L628.2,956l3.2,3.6L462,1113L458.8,1109.4z"/>
	</g>
	<g class="st4">
		<path class="st5" d="M858.7,1141.3l1.9,0.2"/>
	</g>
	<g class="st4">
		<path class="st5" d="M858.8,1141.9l1.7-1"/>
	</g>
	<g class="st4">
		<path class="st5" d="M859,1142.1l1.4-1.4"/>
	</g>
	<g class="st4">
		<path class="st5" d="M858.9,1142l1.5-1.2"/>
	</g>
	<g class="st4">
		<path class="st5" d="M858.6,1142.2l2.2-1.6"/>
	</g>
	<g class="st4">
		<path class="st5" d="M858.7,1141.7l1.9-0.6"/>
	</g>
	<g class="st4">
		<path class="st5" d="M248.9,291.6l0.6-1.8l742.7,268.3l-0.6,1.8L248.9,291.6z"/>
	</g>
	<g class="st4">
		<path class="st5" d="M247.7,291.2l3.3-0.8l211.2,820.4l-3.3,0.8L247.7,291.2z"/>
	</g>
	<g class="st4">
		<path class="st5" d="M247.8,291.6l3-1.7l380.6,666.8l-3,1.7L247.8,291.6z"/>
	</g>
	<g class="st4">
		<path class="st5" d="M247.5,292.1l3.5-2.5l610.5,850.6l-3.5,2.5L247.5,292.1z"/>
	</g>
	<g class="st4">
		<path class="st5" d="M18.3,957.5l230.1-667l1.8,0.6l-230.1,667L18.3,957.5z"/>
	</g>
	<g class="st4">
		<path class="st5" d="M249.2,291.7l0.3-1.9l667.3,95.4l-0.3,1.9L249.2,291.7z"/>
	</g>
	<g class="st4">
		<path class="st5" d="M249.7,291.7l-0.8-1.8"/>
	</g>
	<g class="st4">
		<path class="st5" d="M248.3,290.8l1.9,0l8.3,703.3l-1.9,0L248.3,290.8z"/>
	</g>
	<g class="st4">
		<path class="st5" d="M-122.6,893.9c0-1-0.1-2-0.1-3.1 M18.7,959.1l1.2-2.5l-142.6-65.8c0,1,0.1,2,0.1,3.1
			C-122.6,893.9,18.7,959.1,18.7,959.1z"/>
	</g>
	<g class="st4">
		<path class="st5" d="M251.2,293l-3.9-4.3l-384.8,345.7c0.2,2.4,0.4,4.8,0.6,7.3L251.2,293z M-136.9,641.6
			c-0.2-2.4-0.4-4.8-0.6-7.3"/>
	</g>
	<g class="st4">
		<path class="st5" d="M-89.4,271.5l-2.5-1.1l-64.8,150.4c0.1,2,0.2,4.1,0.4,6.1L-89.4,271.5L-89.4,271.5z M-156.4,426.9
			c-0.1-2-0.3-4.1-0.4-6.1"/>
	</g>
	<g class="st4">
		<path class="st5" d="M-90.8,273.6l0.3-5.1l339.9,19.8l-0.3,5.1L-90.8,273.6z"/>
	</g>
	<g class="st4">
		<path class="st5" d="M-94.1,270.5l32.4-240.8l6.9,0.9l-32.4,240.8L-94.1,270.5z"/>
	</g>
	<g class="st4">
		<path class="st5" d="M-57.3,30.5l-1.8-0.6l-83.8,247.5c-0.6,3.8-1.2,7.6-1.8,11.3L-57.3,30.5L-57.3,30.5z M-144.7,288.7
			c0.6-3.8,1.2-7.5,1.8-11.3"/>
	</g>
	<g class="st4">
		<path class="st5" d="M-60.3,32.8l4.3-5.1l307.5,260.6l-4.3,5.1L-60.3,32.8z"/>
	</g>
	<g class="st4">
		<path class="st5" d="M-145.1,291.6c0.2-1.4,0.5-2.9,0.7-4.3 M-90,272.8l-1.3-3.7l-53.2,18.1c-0.2,1.4-0.5,2.9-0.7,4.3L-90,272.8
			L-90,272.8z"/>
	</g>
	<g class="st4">
		<path class="st5" d="M-151.7,334.7c0.5-3.7,1-7.3,1.6-11 M249.8,296.2l-1-10.8l-398.9,38.3c-0.5,3.7-1.1,7.3-1.6,11L249.8,296.2z"
			/>
	</g>
	<g class="st4">
		<path class="st5" d="M-98.8,83.2c0.2-1.3,0.4-2.7,0.7-4 M-57.4,30.8l-1.5-1.2L-98,79.3c-0.2,1.3-0.5,2.7-0.7,4
			C-98.7,83.3-57.4,30.8-57.4,30.8z"/>
	</g>
	<g class="st4">
		<path class="st5" d="M93.3,193l4.4-6.7l153.8,101.1l-4.4,6.7L93.3,193z"/>
	</g>
	<g class="st4">
		<path class="st5" d="M97.3,190.9l-3.6-2.4l-236,348.2c0.2,2.2,0.4,4.5,0.7,6.8L97.3,190.9z M-141.7,543.4
			c-0.2-2.3-0.4-4.5-0.7-6.8"/>
	</g>
	<g class="st4">
		<path class="st5" d="M-59.8,31.7l3.1-3L97,188.2l-3.1,3L-59.8,31.7z"/>
	</g>
	<g class="st4">
		<path class="st5" d="M-91,270.1l186.1-81.3l0.8,1.7l-186.1,81.3L-91,270.1z"/>
	</g>
	<g class="st4">
		<path class="st5" d="M95.8,190.6l-0.7-1.8l-238.6,91.8c-0.1,0.7-0.2,1.5-0.3,2.2L95.8,190.6L95.8,190.6z M-143.8,282.8
			c0.1-0.7,0.2-1.5,0.3-2.2"/>
	</g>
	<g class="st4">
		<path class="st5" d="M249.3,288.1l433.4-2.6l0,5.5l-433.4,2.6L249.3,288.1z"/>
	</g>
	<g class="st4">
		<path class="st5" d="M95.3,190.8l0.3-1.9l587.2,98.2l-0.3,1.9L95.3,190.8z"/>
	</g>
	<g class="st4">
		<path class="st5" d="M285.7,696l-0.3-1.9l-413.2,72.8c0,0.7,0.1,1.3,0.1,2L285.7,696z M-127.8,768.8c0-0.7-0.1-1.3-0.1-2"/>
	</g>
	<g class="st4">
		<path class="st5" d="M94.6,190l1.8-0.7l190.1,505.4l-1.8,0.7L94.6,190z"/>
	</g>
	<g class="st4">
		<path class="st5" d="M247.9,290.9l2.7-0.2L286.8,695l-2.7,0.2L247.9,290.9z"/>
	</g>
	<g class="st4">
		<path class="st5" d="M-188.9,1311.1l-1.9,0.5"/>
	</g>
	<g class="st4">
		<path class="st5" d="M-188.6,1311.9l69-177.2v-7.6l-71.6,183.7L-188.6,1311.9z"/>
		<path class="st5" d="M25.7,761.6l-2.6-1l-142.8,366.5v7.6L25.7,761.6z"/>
	</g>
	<g class="st4">
		<path class="st5" d="M23,760.5l224.6-470.4l3.1,1.5L26.1,761.9L23,760.5z"/>
	</g>
	<g class="st4">
		<path class="st5" d="M24.6,762.5l-0.3-2.7l-151.6,17.8c0,0.9,0.1,1.8,0.1,2.7C-127.2,780.3,24.6,762.5,24.6,762.5z M-127.1,780.4
			c0-0.9-0.1-1.8-0.1-2.7"/>
	</g>
	<g class="st4">
		<path class="st5" d="M23.5,761.1l70.9-571.5l1.9,0.2L25.4,761.3L23.5,761.1z"/>
	</g>
	<g class="st4">
		<path class="st5" d="M249.2,289.8l805-11l0,1.9l-805,11L249.2,289.8z"/>
	</g>
	<g class="st4">
		<path class="st5" d="M248.7,289.6l346.6-149.7l1.1,2.5L249.8,292L248.7,289.6z"/>
	</g>
	<g class="st4">
		<path class="st5" d="M95.4,188.7l500.4-48.6l0.2,1.9L95.6,190.6L95.4,188.7z"/>
	</g>
	<g class="st4">
		<path class="st5" d="M247.7,291.4l3.2-1.3l233,581.4l-3.2,1.3L247.7,291.4z"/>
	</g>
	<g class="st4">
		<path class="st5" d="M284.6,696.2l1.8-2l196.7,177.1l-1.8,2L284.6,696.2z"/>
	</g>
	<g class="st4">
		<path class="st5" d="M248,291.9l2.5-2.3l301.3,340l-2.5,2.3L248,291.9z"/>
	</g>
	<g class="st4">
		<path class="st5" d="M480.7,871.7l68.2-241.5l3.3,0.9L484,872.6L480.7,871.7z"/>
	</g>
	<g class="st4">
		<path class="st5" d="M285.2,693.8l265-64.2l0.6,2.6l-265,64.2L285.2,693.8z"/>
	</g>
	<g class="st4">
		<path class="st5" d="M481.7,871l337.4-142.8l1.1,2.5L482.8,873.4L481.7,871z"/>
	</g>
	<g class="st4">
		<path class="st5" d="M550.1,632.2l0.9-2.5l269.1,98.6l-0.9,2.5L550.1,632.2z"/>
	</g>
	<g class="st4">
		<path class="st5" d="M248.5,291.9l1.6-2.1l570.3,438.7l-1.6,2.1L248.5,291.9z"/>
	</g>
	<g class="st4">
		<path class="st5" d="M285.5,696l0.1-1.9l534.1,34.5l-0.1,1.9L285.5,696z"/>
	</g>
	<g class="st4">
		<path class="st5" d="M481.2,871.5l241.5-323.6l2.2,1.6L483.3,873.1L481.2,871.5z"/>
	</g>
	<g class="st4">
		<path class="st5" d="M550,629.5l173.3-82.3l1.2,2.4L551.1,632L550,629.5z"/>
	</g>
	<g class="st4">
		<path class="st5" d="M722.6,549.1l2.4-1.3l95.9,180.9l-2.4,1.3L722.6,549.1z"/>
	</g>
	<g class="st4">
		<path class="st5" d="M248.7,292l1.3-2.4l474.6,257.6l-1.3,2.4L248.7,292z"/>
	</g>
	<g class="st4">
		<path class="st5" d="M285.2,694.1l438.3-146.5l0.6,1.8L285.8,695.9L285.2,694.1z"/>
	</g>
	<g class="st4">
		<path class="st5" d="M482.2,870.8l211.2-24.6l0.3,2.7l-211.2,24.6L482.2,870.8z"/>
	</g>
	<g class="st4">
		<path class="st5" d="M549.4,631.6l2.3-1.5l142.9,216.7l-2.3,1.5L549.4,631.6z"/>
	</g>
	<g class="st4">
		<path class="st5" d="M692.5,846.5l126.3-118.2l1.8,2L694.3,848.5L692.5,846.5z"/>
	</g>
	<g class="st4">
		<path class="st5" d="M692.1,847.5l30.3-299.1l2.7,0.3l-30.3,299.1L692.1,847.5z"/>
	</g>
	<g class="st4">
		<path class="st5" d="M248.2,291.7l2.1-1.7l444.1,556.7l-2.1,1.7L248.2,291.7z"/>
	</g>
	<g class="st4">
		<path class="st5" d="M285.2,696l0.7-1.8l407.9,152.7l-0.7,1.8L285.2,696z"/>
	</g>
	<g class="st4">
		<path class="st5" d="M-58.6,31.1l0.7-1.8l-32-12.3c0,0.7,0.1,1.4,0.1,2.1C-89.8,19.1-58.6,31.1-58.6,31.1z M-89.8,19.1
			c0-0.7-0.1-1.4-0.1-2.1"/>
	</g>
	<g class="st4">
		<path class="st5" d="M-91.8,39c0.2-0.7,0.5-1.4,0.7-2.1 M-58,31.1l-0.4-1.9l-32.7,7.6c-0.2,0.7-0.4,1.4-0.7,2.1
			C-91.8,38.9-58,31.1-58,31.1z"/>
	</g>
	<g class="st4">
		<path class="st5" d="M-92,270.7l2.7,0.5L-20.4-76c-1,0.5-2.1,1.1-3.1,1.6L-92,270.7z M-23.5-74.3c1-0.5,2.1-1.1,3.1-1.6"/>
	</g>
	<g class="st4">
		<path class="st5" d="M-59.8,29.8l3.3,0.8l25.1-101.8c-1.2,0.3-2.5,0.7-3.7,1C-35.1-70.2-59.8,29.8-59.8,29.8z M-35.2-70.2
			c1.2-0.3,2.5-0.7,3.7-1"/>
	</g>
	<g class="st4">
		<path class="st5" d="M-58.8,31.5l1.1-2.5L-90,14.7c0.1,1,0.1,2,0.2,3.1C-89.8,17.8-58.8,31.5-58.8,31.5z M-89.9,17.8
			c0-1-0.1-2-0.2-3.1"/>
	</g>
	<g class="st4">
		<path class="st5" d="M-133.7,216.8c0.2-0.8,0.5-1.5,0.7-2.3 M-91.4,271.6l1.5-1.2l-43.1-55.9c-0.2,0.8-0.5,1.5-0.7,2.3
			C-133.7,216.8-91.4,271.6-91.4,271.6z"/>
	</g>
	<g class="st4">
		<path class="st5" d="M22.9,572.9l225.1-283l2.7,2.1L25.5,575L22.9,572.9z"/>
	</g>
	<g class="st4">
		<path class="st5" d="M23.7,574.7l1.1-1.6l-178.9-124.6c0.1,0.9,0.2,1.7,0.4,2.6L23.7,574.7z M-153.8,451.1
			c-0.1-0.9-0.2-1.7-0.4-2.6"/>
	</g>
	<g class="st4">
		<path class="st5" d="M23.2,573.7l71.3-384.1l1.9,0.3L25.1,574L23.2,573.7z"/>
	</g>
	<g class="st4">
		<path class="st5" d="M681.9,286.7l268.3-153.9l1.7,2.9L683.6,289.7L681.9,286.7z"/>
	</g>
	<g class="st4">
		<path class="st5" d="M249.1,289.9l701.6-156.6l0.4,1.9L249.5,291.7L249.1,289.9z"/>
	</g>
	<g class="st4">
		<path class="st5" d="M682.3,289.5l0.6-2.6l457.3,97.9l-0.6,2.6L682.3,289.5z"/>
	</g>
	<g class="st4">
		<path class="st5" d="M-59.1,29.8l1.7,0.9L4.5-90c-1,0.6-2.1,1.2-3.1,1.8C1.4-88.2-59.1,29.8-59.1,29.8z M1.4-88.2
			c1-0.6,2.1-1.2,3.1-1.8"/>
	</g>
	<g class="st4">
		<path class="st5" d="M94.5,189.6l1.9,0.3l43.9-310.5h-2L94.5,189.6z M138.4-120.6h2"/>
	</g>
	<g class="st4">
		<path class="st5" d="M212.1-125.7c0.7,0,1.3,0,2,0.1 M248.3,290.9l1.9-0.2L214-125.6c-0.7,0-1.3,0-2-0.1L248.3,290.9L248.3,290.9z
			"/>
	</g>
	<g class="st4">
		<path class="st5" d="M248.8,292.1l0.9-2.6L-116,155.8c-0.3,0.9-0.5,1.8-0.8,2.6L248.8,292.1z M-116.8,158.4
			c0.3-0.9,0.6-1.7,0.8-2.6"/>
	</g>
	<g class="st4">
		<path class="st5" d="M-145,290.4c0.1-0.7,0.2-1.4,0.3-2.2 M-90.3,271.9l-0.6-1.8l-53.6,18.2c-0.1,0.7-0.2,1.4-0.3,2.2L-90.3,271.9
			L-90.3,271.9z"/>
	</g>
	<g class="st4">
		<path class="st5" d="M-139.6,237.5c0.2-0.9,0.5-1.8,0.7-2.7 M249.1,292.2l0.4-2.7l-388.3-54.6c-0.2,0.9-0.5,1.8-0.7,2.7
			L249.1,292.2L249.1,292.2z"/>
	</g>
	<g class="st4">
		<path class="st5" d="M-56-59.6c2.3-1.7,4.6-3.3,7.1-4.7 M246.1,293.5l6.4-5.5L-48.9-64.3c-2.5,1.5-4.8,3-7.1,4.7L246.1,293.5z"/>
	</g>
	<g class="st4">
		<path class="st5" d="M-87-17.3c0.5-1,0.9-2,1.5-3 M-59.4,30.9l2.4-1.4l-28.5-49.8l-1.5,3C-87-17.3-59.4,30.9-59.4,30.9z"/>
	</g>
	<g class="st4">
		<path class="st5" d="M93.2,190.1l4.7-0.8l-52.4-300c-1.6,0.4-3.1,0.7-4.7,1L93.2,190.1L93.2,190.1z M40.8-109.7
			c1.6-0.3,3.1-0.6,4.7-1"/>
	</g>
	<g class="st4">
		<path class="st5" d="M100.6-120.6l146.9,412.1l3.7-1.3L104.7-120.6L100.6-120.6L100.6-120.6z M100.6-120.6h4.1"/>
	</g>
	<g class="st4">
		<path class="st5" d="M248.3,291l1.9-0.3l-67.7-415.4c-0.6,0.1-1.3,0.2-1.9,0.2L248.3,291z M180.6-124.5c0.6-0.1,1.3-0.2,1.9-0.2"
			/>
	</g>
	<g class="st4">
		<path class="st5" d="M-59,28.3l328.5-142.6l1.7,3.9L-57.3,32.2L-59,28.3z"/>
	</g>
	<g class="st4">
		<path class="st5" d="M248.3,290.8l20.9-403.2l1.9,0.1l-20.9,403.2L248.3,290.8z"/>
	</g>
	<g class="st4">
		<path class="st5" d="M-91.3,270.4L269.5-113l1.4,1.3L-89.9,271.7L-91.3,270.4z"/>
	</g>
	<g class="st4">
		<path class="st5" d="M94.6,189.2l174.9-302l1.6,1l-174.9,302L94.6,189.2z"/>
	</g>
	<g class="st4">
		<path class="st5" d="M269.3-112.1l1.9-0.5l-4.1-16.2c-0.6,0.1-1.3,0.2-1.9,0.3L269.3-112.1z M265.1-128.5c0.6-0.1,1.3-0.2,1.9-0.3
			"/>
	</g>
	<g class="st4">
		<path class="st5" d="M269.7-111.6l1.1-1.6l-17.3-12.5c-0.9,0.2-1.7,0.4-2.6,0.5L269.7-111.6z M250.9-125.1
			c0.9-0.1,1.7-0.3,2.6-0.5"/>
	</g>
	<g class="st4">
		<path class="st5" d="M-58.3,27.8l403.6-11.3l0.1,4.8L-58.2,32.6L-58.3,27.8z"/>
	</g>
	<g class="st4">
		<path class="st5" d="M268.2-111.1l4.2-2.4l75.1,131.3l-4.2,2.4L268.2-111.1z"/>
	</g>
	<g class="st4">
		<path class="st5" d="M248.4,290.5l96.1-271.8l1.8,0.6l-96.1,271.8L248.4,290.5z"/>
	</g>
	<g class="st4">
		<path class="st5" d="M-91.2,270L345,18.3l0.9,1.6L-90.2,271.6L-91.2,270z"/>
	</g>
	<g class="st4">
		<path class="st5" d="M94.7,188.6L344.6,17.9l1.5,2.2L96.2,190.8L94.7,188.6z"/>
	</g>
	<g class="st4">
		<path class="st5" d="M344.5,19.3l1.8-0.6l-51.1-148.1h-2L344.5,19.3L344.5,19.3z M293.2-129.4h2"/>
	</g>
	<g class="st4">
		<path class="st5" d="M344.7,19.7l1.3-1.4l-149.9-144c-0.9,0-1.8,0.1-2.7,0.1L344.7,19.7z M193.5-125.6c0.9,0,1.8-0.1,2.7-0.1"/>
	</g>
	<g class="st4">
		<path class="st5" d="M-59.4,28.6l179-125.3l2.2,3.2l-179,125.3L-59.4,28.6z"/>
	</g>
	<g class="st4">
		<path class="st5" d="M120-93.4l1.8-3.5L346.3,17.2l-1.8,3.5L120-93.4z"/>
	</g>
	<g class="st4">
		<path class="st5" d="M120.6-97.1L270-114.3l0.4,3.9L121-93.2L120.6-97.1z"/>
	</g>
	<g class="st4">
		<path class="st5" d="M119.9-94.8l1.8-0.6l128.5,385.9l-1.8,0.6L119.9-94.8z"/>
	</g>
	<g class="st4">
		<path class="st5" d="M-91.4,270.6L119.9-95.6l1.6,0.9L-89.8,271.5L-91.4,270.6z"/>
	</g>
	<g class="st4">
		<path class="st5" d="M94.5,189.6l25.4-284.8l1.9,0.2L96.4,189.8L94.5,189.6z"/>
	</g>
	<g class="st4">
		<path class="st5" d="M120-94.7l1.7-0.9l-12.7-25h-2.2L120-94.7z M106.9-120.6h2.2"/>
	</g>
	<g class="st4">
		<path class="st5" d="M119.9-94.7l1.8-0.7l-9.6-25.1H110L119.9-94.7z M110.1-120.6h2.1"/>
	</g>
	<g class="st4">
		<path class="st5" d="M441.1-130.2h2.9 M441.1-130.2L94.8,189l1.3,1.4L444-130.2H441.1z"/>
	</g>
	<g class="st4">
		<path class="st5" d="M442.9-130.2h3.3 M442.9-130.2L344.3,18.2l2.3,1.5l99.7-150C445.1-130.2,444-130.2,442.9-130.2z"/>
	</g>
	<g class="st4">
		<path class="st5" d="M399.2-130.2h21.7 M399.2-130.2L270-113.7l0.3,2.7L421-130.2H399.2z"/>
	</g>
	<g class="st4">
		<path class="st5" d="M397-130.2h22.8 M397-130.2L120.7-96.5l0.3,2.7l298.7-36.5C412.1-130.2,404.6-130.2,397-130.2z"/>
	</g>
	<g class="st4">
		<path class="st5" d="M444.5-130.2h2.1 M444.5-130.2L248.4,290.4l1.8,0.8l196.5-421.4L444.5-130.2L444.5-130.2z"/>
	</g>
	<g class="st4">
		<path class="st5" d="M429.9-130.2h6.2 M429.9-130.2L-58.5,29.3l0.6,1.8l494.1-161.4C434.1-130.2,432-130.2,429.9-130.2
			L429.9-130.2z"/>
	</g>
	<g class="st4">
		<path class="st5" d="M-116.7,589.6l2.2-1.7l-26.3-33.9c0.1,1.5,0.1,3.1,0.1,4.6L-116.7,589.6L-116.7,589.6z M-140.7,558.7
			c0-1.5-0.1-3.1-0.1-4.6"/>
	</g>
	<g class="st4">
		<path class="st5" d="M-116.5,588.3l211.2-399l1.7,0.9l-211.2,399L-116.5,588.3z"/>
	</g>
	<g class="st4">
		<path class="st5" d="M-116.2,588.1L248.5,290l1.2,1.5L-115,589.6L-116.2,588.1z"/>
	</g>
	<g class="st4">
		<path class="st5" d="M343.8,18.6l3.2,0.9l40.9-149.6h-3.5L343.8,18.6z M384.4-130.2h3.5"/>
	</g>
	<g class="st4">
		<path class="st5" d="M268.9-113.3l2.7,2l12.9-17.9c-1.4,0-2.8,0.1-4.2,0.1L268.9-113.3L268.9-113.3z M280.4-129.2
			c1.4,0,2.8-0.1,4.2-0.1"/>
	</g>
	<g class="st4">
		<path class="st5" d="M-59.2,28.9l2,2.7L141-120.7c-1.9,0.1-3.8,0.1-5.7,0.1L-59.2,28.9z M135.3-120.6c1.9,0,3.8-0.1,5.7-0.1"/>
	</g>
	<g class="st4">
		<path class="st5" d="M120.2-95.8l1.2,1.5l33.5-27c-1.1,0.1-2.2,0.2-3.4,0.2L120.2-95.8z M151.6-121.1c1.1-0.1,2.2-0.1,3.4-0.2"/>
	</g>
</g>
<g id="Vertices">
	
		<use xlink:href="#Reddit_Icon_2"  width="85" height="85" id="XMLID_67_" x="-42.5" y="-42.5" transform="matrix(0.9244 0 0 -0.9244 595.96 141.074)" style="overflow:visible;"/>
	
		<use xlink:href="#Twitter_Icon_2"  width="85" height="85" x="-42.5" y="-42.5" transform="matrix(0.9244 0 0 -0.9244 345.4 18.995)" style="overflow:visible;"/>
	
		<use xlink:href="#Twitter_Icon_2"  width="85" height="85" x="-42.5" y="-42.5" transform="matrix(0.9244 0 0 -0.9244 95.493 189.684)" style="overflow:visible;"/>
	
		<use xlink:href="#Reddit_Icon_2"  width="85" height="85" x="-42.5" y="-42.5" transform="matrix(0.9244 0 0 -0.9244 285.55 695.087)" style="overflow:visible;"/>
	
		<use xlink:href="#Twitter_Icon_2"  width="85" height="85" x="-42.5" y="-42.5" transform="matrix(0.9244 0 0 -0.9244 24.234 573.877)" style="overflow:visible;"/>
	
		<use xlink:href="#YouTube_Icon_2"  width="85" height="85" id="XMLID_66_" x="-42.5" y="-42.5" transform="matrix(0.9244 0 0 -0.9244 249.286 290.794)" style="overflow:visible;"/>
	
		<use xlink:href="#Twitter_Icon_2"  width="85" height="85" x="-42.5" y="-42.5" transform="matrix(0.9244 0 0 -0.9244 723.817 548.54)" style="overflow:visible;"/>
	
		<use xlink:href="#Twitter_Icon_2"  width="85" height="85" id="XMLID_64_" x="-42.5" y="-42.5" transform="matrix(0.9244 0 0 -0.9244 550.54 630.802)" style="overflow:visible;"/>
	
		<use xlink:href="#Twitter_Icon_2"  width="85" height="85" id="XMLID_63_" x="-42.5" y="-42.5" transform="matrix(0.9244 0 0 -0.9244 682.66 288.205)" style="overflow:visible;"/>
	
		<use xlink:href="#Twitter_Icon_2"  width="85" height="85" id="XMLID_62_" x="-42.5" y="-42.5" transform="matrix(0.9244 0 0 -0.9244 693.42 847.596)" style="overflow:visible;"/>
	
		<use xlink:href="#Reddit_Icon_2"  width="85" height="85" x="-42.5" y="-42.5" transform="matrix(0.9244 0 0 -0.9244 916.61 386.086)" style="overflow:visible;"/>
	
		<use xlink:href="#YouTube_Icon_2"  width="85" height="85" x="-42.5" y="-42.5" transform="matrix(0.9244 0 0 -0.9244 950.95 134.306)" style="overflow:visible;"/>
	
		<use xlink:href="#Reddit_Icon_2"  width="85" height="85" id="XMLID_61_" x="-42.5" y="-42.5" transform="matrix(0.9244 0 0 -0.9244 482.29 872.205)" style="overflow:visible;"/>
	
		<use xlink:href="#Twitter_Icon_2"  width="85" height="85" x="-42.5" y="-42.5" transform="matrix(0.9244 0 0 -0.9244 1139.9561 386.086)" style="overflow:visible;"/>
	
		<use xlink:href="#Twitter_Icon_2"  width="85" height="85" id="XMLID_59_" x="-42.5" y="-42.5" transform="matrix(0.9244 0 0 -0.9244 257.597 994.194)" style="overflow:visible;"/>
	
		<use xlink:href="#Twitter_Icon_2"  width="85" height="85" x="-42.5" y="-42.5" transform="matrix(0.9244 0 0 -0.9244 1054.3199 279.757)" style="overflow:visible;"/>
	
		<use xlink:href="#Twitter_Icon_2"  width="85" height="85" x="-42.5" y="-42.5" transform="matrix(0.9244 0 0 -0.9244 991.997 559.114)" style="overflow:visible;"/>
	
		<use xlink:href="#Reddit_Icon_2"  width="85" height="85" x="-42.5" y="-42.5" transform="matrix(0.9244 0 0 -0.9244 819.679 729.378)" style="overflow:visible;"/>
	
		<use xlink:href="#YouTube_Icon_2"  width="85" height="85" x="-42.5" y="-42.5" transform="matrix(0.9244 0 0 -0.9244 460.424 1111.146)" style="overflow:visible;"/>
	
		<use xlink:href="#Reddit_Icon_2"  width="85" height="85" x="-42.5" y="-42.5" transform="matrix(0.9244 0 0 -0.9244 19.323 957.828)" style="overflow:visible;"/>
	
		<use xlink:href="#Twitter_Icon_2"  width="85" height="85" id="XMLID_58_" x="-42.5" y="-42.5" transform="matrix(0.9244 0 0 -0.9244 24.447 761.144)" style="overflow:visible;"/>
	
		<use xlink:href="#Reddit_Icon_2"  width="85" height="85" id="XMLID_57_" x="-42.5" y="-42.5" transform="matrix(0.9244 0 0 -0.9244 629.86 957.677)" style="overflow:visible;"/>
	
		<use xlink:href="#Reddit_Icon_2"  width="85" height="85" id="XMLID_52_" x="-42.5" y="-42.5" transform="matrix(0.9244 0 0 -0.9244 859.678 1141.4)" style="overflow:visible;"/>
</g>
</svg>
