<?xml version="1.0" encoding="utf-8"?>
<!-- Generator: Adobe Illustrator 16.0.0, SVG Export Plug-In . SVG Version: 6.00 Build 0)  -->
<!DOCTYPE svg PUBLIC "-//W3C//DTD SVG 1.1//EN" "http://www.w3.org/Graphics/SVG/1.1/DTD/svg11.dtd">
<svg version="1.1" id="Layer_1" xmlns="http://www.w3.org/2000/svg" xmlns:xlink="http://www.w3.org/1999/xlink" x="0px" y="0px"
	 width="128px" height="128px" viewBox="0 0 128 128" enable-background="new 0 0 128 128" xml:space="preserve">
<g>
	<path fill="#5A65AD" d="M124.245,14.575c-1.003-1-2.145-1.801-3.373-2.41c-0.147-0.08-17.378-8.689-17.528-8.765
		c-1.846-1.009-3.916-1.549-6.064-1.549H70.027c-3.388,0-6.584,1.331-8.999,3.747c-1.155,1.155-2.054,2.492-2.685,3.94
		C58.294,9.515,46.21,3.477,46.061,3.401c-1.846-1.009-3.917-1.55-6.066-1.55H12.742c-3.39,0-6.587,1.332-8.996,3.744
		C1.331,8.011,0,11.207,0,14.595v89.821c0,3.593,1.407,6.888,3.947,9.263c0.985,0.925,2.076,1.663,3.243,2.226
		c0.148,0.079,17.378,8.69,17.528,8.764c1.822,0.971,3.85,1.48,6.002,1.48h27.252c3.387,0,6.583-1.33,9-3.748
		c1.154-1.155,2.053-2.493,2.683-3.938c0.047,0.022,0.094,0.042,0.139,0.065c0.148,0.08,11.985,5.993,12.136,6.066
		c1.847,1.013,3.92,1.555,6.075,1.555h27.253c3.386,0,6.579-1.329,9-3.748c2.413-2.416,3.742-5.609,3.742-8.995V23.583
		C128,20.204,126.673,17.012,124.245,14.575z"/>
	<g>
		<g>
			<path fill="#FFFFFF" d="M97.279,10.84c1.019,0,1.899,0.372,2.643,1.113c0.74,0.742,1.112,1.622,1.112,2.642v89.821
				c0,1.021-0.372,1.9-1.112,2.643c-0.743,0.742-1.624,1.112-2.643,1.112H70.027c-1.021,0-1.901-0.37-2.642-1.112
				c-0.743-0.742-1.111-1.622-1.111-2.643V74.383H43.749v30.033c0,1.021-0.371,1.9-1.112,2.643
				c-0.743,0.742-1.623,1.112-2.642,1.112H12.742c-1.021,0-1.901-0.349-2.641-1.044c-0.744-0.694-1.113-1.599-1.113-2.711V14.595
				c0-1.02,0.37-1.899,1.113-2.642c0.74-0.741,1.62-1.113,2.641-1.113h27.252c1.02,0,1.899,0.372,2.642,1.113
				c0.741,0.742,1.112,1.622,1.112,2.642v29.198h22.526V14.595c0-1.02,0.368-1.899,1.111-2.642c0.74-0.741,1.62-1.113,2.642-1.113
				H97.279z"/>
		</g>
	</g>
</g>
</svg>
